<?xml version="1.0" encoding="UTF-8"?>
<svg id="Layer_1" data-name="Layer 1" xmlns="http://www.w3.org/2000/svg" viewBox="0 0 1080 1080">
  <defs>
    <style>
      .cls-1 {
        stroke-width: 0px;
      }

      .cls-1, .cls-2 {
        fill: #000;
      }

      .cls-2 {
        font-family: Ebrima, Ebrima;
        font-size: 38.13px;
        letter-spacing: .28em;
      }
    </style>
  </defs>
  <g>
    <g>
      <path class="cls-1" d="M586.56,115.43c-7.22-3.73-14.35-7.64-21.43-11.69h-13.04c-8.71,4.98-17.51,9.73-26.41,14.35-19.8,10.25-40.1,19.66-60.88,28.23v618.59c3.4,2.89,6.85,5.68,10.34,8.48h-10.34v58.13c1.16.93,2.33,1.86,3.49,2.75,18.49,14.39,37.63,27.99,57.38,40.71,10.81,6.99,21.75,13.69,32.93,20.17,9.46-5.45,18.77-11.13,27.95-17,20.96-13.27,41.27-27.53,60.88-42.71v-62.04h-5.36c1.82-1.44,3.59-2.89,5.36-4.33V144.22c-20.77-8.71-41.08-18.3-60.88-28.78ZM586.56,813.49c-9.18,5.92-18.49,11.6-27.95,17.09-11.18-6.47-22.17-13.27-32.93-20.4v-280.3h60.88v283.61ZM525.69,469V182.41c11.13-5.59,22.12-11.55,32.93-17.79,9.18,5.31,18.49,10.39,27.95,15.28v289.11h-60.88Z"/>
      <path class="cls-1" d="M558.61,897.83l-1.16-.68c-11.11-6.43-22.22-13.24-33.03-20.23-19.57-12.6-38.93-26.33-57.55-40.83-1.16-.88-2.34-1.82-3.52-2.77l-.87-.7v-61.58h6.08c-1.76-1.44-3.52-2.9-5.26-4.37l-.82-.7V144.76l1.44-.6c20.7-8.54,41.12-18.01,60.69-28.14,9.54-4.94,18.15-9.62,26.32-14.3l.54-.31h14.28l.54.31c7.53,4.31,14.51,8.12,21.34,11.64h.02c19.59,10.38,40.01,20.04,60.69,28.71l1.43.6v627.49l-.86.7c-.08.07-.16.13-.24.2h1.1v65.51l-.9.7c-19.62,15.19-40.16,29.6-61.06,42.84-9.42,6.02-18.85,11.76-28.03,17.05l-1.16.67ZM467.14,830.39c.86.68,1.71,1.36,2.57,2.02,18.54,14.42,37.79,28.08,57.24,40.6,10.37,6.71,21.02,13.24,31.67,19.44,8.75-5.07,17.72-10.54,26.69-16.27,20.46-12.96,40.57-27.05,59.8-41.89v-58.57h-9.7l5.22-4.15c1.52-1.2,3-2.41,4.48-3.61V145.76c-20.31-8.56-40.36-18.07-59.62-28.26-6.72-3.47-13.59-7.21-20.97-11.43h-11.8c-8.07,4.61-16.57,9.22-25.96,14.08-19.24,9.96-39.29,19.28-59.62,27.72v615.96c3.12,2.63,6.27,5.18,9.47,7.74l5.18,4.15h-14.65v54.68ZM558.62,833.28l-1.17-.68c-11.31-6.55-22.43-13.44-33.05-20.48l-1.04-.69v-283.88h65.53v287.21l-1.07.69c-8.9,5.74-18.34,11.51-28.04,17.15l-1.17.68ZM528.02,808.93c9.86,6.5,20.14,12.87,30.6,18.96,8.84-5.16,17.45-10.43,25.62-15.67v-280.01h-56.22v276.72ZM588.89,471.33h-65.53V180.97l1.28-.64c10.77-5.41,21.81-11.37,32.81-17.73l1.16-.67,1.17.68c8.88,5.14,18.25,10.26,27.85,15.22l1.26.65v292.85ZM528.02,466.67h56.22V181.31c-8.81-4.58-17.41-9.28-25.62-14.01-10.26,5.9-20.54,11.45-30.6,16.54v282.83Z"/>
    </g>
    <g>
      <path class="cls-1" d="M403.93,168.62v117.75h-60.88v-43.08c-19.98,3.63-40.29,6.29-60.88,8.01-18.63,1.58-37.49,2.38-56.55,2.38,0,10.95.28,21.84.79,32.7.98,20.54,2.93,40.85,5.78,60.88,2.84,20.59,6.71,40.9,11.41,60.88,4.94,20.68,10.81,40.99,17.61,60.88,6.24,18.26,13.23,36.19,20.96,53.66v7.22h3.26c9.5,20.91,20.12,41.22,31.67,60.88,8.15,13.83,16.81,27.39,25.94,40.62v-162.37h-60.88v-60.88h121.75v304.38h-60.97c-16.16-19.52-31.39-39.82-45.65-60.88-5.17-7.64-10.25-15.42-15.14-23.24-7.73-12.3-15.14-24.87-22.17-37.63-10.99-19.8-21.1-40.06-30.37-60.88-2.89-6.43-5.64-12.9-8.34-19.42-5.68-13.65-10.95-27.43-15.84-41.45-6.99-19.93-13.18-40.24-18.58-60.88-5.22-19.98-9.69-40.29-13.32-60.88-3.63-20.03-6.47-40.34-8.52-60.88-2-20.07-3.26-40.38-3.68-60.88-.19-6.33-.28-12.72-.28-19.1,20.26,0,40.34-.75,60.22-2.28,20.49-1.49,40.8-3.82,60.88-6.89,20.59-3.12,40.85-7.08,60.88-11.78,20.63-4.8,40.94-10.39,60.88-16.81Z"/>
      <path class="cls-1" d="M406.26,714.84h-64.4l-.7-.84c-16.16-19.52-31.56-40.06-45.78-61.06-5.34-7.89-10.45-15.73-15.18-23.31-7.71-12.26-15.19-24.96-22.24-37.75-10.96-19.73-21.21-40.28-30.45-61.05-2.54-5.65-5.2-11.84-8.36-19.48-5.64-13.55-10.99-27.54-15.88-41.58-6.96-19.85-13.23-40.39-18.64-61.05-5.29-20.28-9.79-40.83-13.36-61.06-3.62-19.96-6.5-40.5-8.55-61.05-2.04-20.43-3.28-40.97-3.69-61.06-.19-6.34-.28-12.74-.28-19.14v-2.33h2.33c20.32,0,40.53-.76,60.05-2.27,19.99-1.46,40.41-3.77,60.7-6.87,19.98-3.03,40.4-6.98,60.7-11.75,20.69-4.81,41.11-10.45,60.7-16.76l3.04-.98v123.27h-65.54v-42.63c-18.93,3.35-38.55,5.89-58.35,7.55-17.85,1.52-36.14,2.32-54.41,2.38.04,9.82.3,19.99.79,30.26.96,20.07,2.89,40.48,5.75,60.66,2.74,19.83,6.56,40.24,11.37,60.67,4.91,20.57,10.81,40.98,17.54,60.66,6.26,18.31,13.28,36.3,20.88,53.47l.2.94v4.89h2.43l.62,1.36c9.25,20.36,19.87,40.77,31.56,60.66,6.79,11.52,14.04,23.02,21.61,34.25v-152.49h-60.88v-65.53h126.41v309.04ZM344.06,710.18h57.55v-299.73h-117.1v56.22h60.88v172.17l-4.25-6.15c-9.17-13.28-17.92-27-26.03-40.76-11.51-19.59-21.99-39.68-31.16-59.73h-4.09v-9.06c-7.58-17.16-14.59-35.12-20.83-53.4-6.78-19.82-12.72-40.37-17.67-61.09-4.85-20.58-8.7-41.14-11.45-61.1-2.88-20.32-4.83-40.88-5.79-61.09-.53-11.16-.8-22.19-.8-32.81v-2.33h2.33c18.91,0,37.87-.8,56.35-2.37,20.62-1.73,41.03-4.41,60.66-7.98l2.75-.5v43.55h56.22v-112.23c-18.78,5.96-38.28,11.3-58.02,15.89-20.41,4.8-40.96,8.77-61.06,11.82-20.41,3.12-40.95,5.45-61.06,6.91-18.88,1.46-38.41,2.23-58.06,2.29.02,5.58.11,11.16.28,16.7.41,19.99,1.64,40.41,3.67,60.71,2.04,20.43,4.9,40.85,8.5,60.69,3.55,20.12,8.02,40.54,13.28,60.7,5.38,20.54,11.61,40.96,18.53,60.69,4.87,13.96,10.18,27.86,15.79,41.33,3.15,7.6,5.79,13.75,8.31,19.36,9.2,20.66,19.38,41.08,30.28,60.7,7.01,12.72,14.44,25.34,22.11,37.53,4.71,7.54,9.79,15.34,15.09,23.18,13.93,20.57,29,40.7,44.81,59.85Z"/>
    </g>
    <g>
      <path class="cls-1" d="M706.03,168.62v117.75s60.88,0,60.88,0v-43.08c19.98,3.63,40.29,6.29,60.88,8.01,18.63,1.58,37.49,2.38,56.55,2.38,0,10.95-.28,21.84-.79,32.7-.98,20.54-2.93,40.85-5.78,60.88-2.84,20.59-6.71,40.9-11.41,60.88-4.94,20.68-10.81,40.99-17.61,60.88-6.24,18.26-13.23,36.19-20.96,53.66v7.22h-3.26c-9.5,20.91-20.12,41.22-31.67,60.88-8.15,13.83-16.81,27.39-25.94,40.62v-162.37h60.88s0-60.88,0-60.88h-121.75s0,304.38,0,304.38h60.97c16.16-19.52,31.39-39.82,45.65-60.88,5.17-7.64,10.25-15.42,15.14-23.24,7.73-12.3,15.14-24.87,22.17-37.63,10.99-19.8,21.1-40.06,30.37-60.88,2.89-6.43,5.64-12.9,8.34-19.42,5.68-13.65,10.95-27.43,15.84-41.45,6.99-19.93,13.18-40.24,18.58-60.88,5.22-19.98,9.69-40.29,13.32-60.88,3.63-20.03,6.47-40.34,8.52-60.88,2-20.07,3.26-40.38,3.68-60.88.19-6.33.28-12.72.28-19.1-20.26,0-40.34-.75-60.22-2.28-20.49-1.49-40.8-3.82-60.88-6.89-20.59-3.12-40.85-7.08-60.88-11.78-20.63-4.8-40.94-10.39-60.88-16.81Z"/>
      <path class="cls-1" d="M703.71,405.8h126.41v65.53h-60.88s0,152.49,0,152.49c7.57-11.23,14.82-22.72,21.61-34.25,11.69-19.89,22.31-40.3,31.56-60.66l.62-1.36h2.43s0-4.89,0-4.89l.2-.94c7.6-17.17,14.63-35.16,20.88-53.47,6.73-19.68,12.63-40.09,17.54-60.66,4.81-20.43,8.64-40.84,11.37-60.67,2.86-20.18,4.8-40.59,5.75-60.66.49-10.27.75-20.44.79-30.26-18.27-.06-36.56-.86-54.41-2.38-19.81-1.66-39.42-4.2-58.35-7.55v42.63h-65.54v-123.27s3.04.98,3.04.98c19.59,6.32,40,11.95,60.7,16.76,20.3,4.77,40.72,8.72,60.7,11.75,20.29,3.1,40.71,5.42,60.7,6.87,19.52,1.51,39.72,2.27,60.05,2.27h2.33v2.33c0,6.4-.09,12.81-.28,19.14-.41,20.09-1.65,40.63-3.69,61.06-2.05,20.55-4.93,41.09-8.55,61.05-3.57,20.23-8.06,40.78-13.36,61.06-5.41,20.66-11.68,41.2-18.64,61.05-4.9,14.04-10.24,28.03-15.88,41.58-3.16,7.63-5.82,13.83-8.36,19.48-9.25,20.78-19.5,41.32-30.45,61.05-7.05,12.79-14.53,25.49-22.24,37.75-4.74,7.58-9.85,15.42-15.18,23.31-14.21,20.99-29.62,41.54-45.78,61.06l-.7.84h-64.4v-309.04ZM810.72,650.33c5.31-7.84,10.38-15.64,15.09-23.18,7.66-12.19,15.1-24.81,22.11-37.53,10.9-19.62,21.08-40.04,30.28-60.7,2.52-5.62,5.16-11.77,8.31-19.36,5.61-13.47,10.92-27.38,15.79-41.33,6.92-19.74,13.15-40.16,18.53-60.69,5.26-20.16,9.73-40.58,13.28-60.7,3.6-19.85,6.46-40.27,8.5-60.69,2.03-20.3,3.26-40.72,3.67-60.71.16-5.54.25-11.12.28-16.7-19.65-.06-39.18-.83-58.06-2.29-20.1-1.46-40.65-3.79-61.06-6.91-20.1-3.05-40.64-7.02-61.06-11.82-19.74-4.59-39.25-9.93-58.02-15.89v112.23s56.22,0,56.22,0v-43.55s2.75.5,2.75.5c19.63,3.57,40.04,6.25,60.66,7.98,18.48,1.57,37.44,2.37,56.35,2.37h2.33v2.33c0,10.61-.27,21.65-.8,32.81-.96,20.21-2.91,40.76-5.79,61.09-2.75,19.96-6.61,40.52-11.45,61.1-4.95,20.72-10.89,41.27-17.67,61.09-6.25,18.27-13.25,36.24-20.83,53.4v9.06h-4.09c-9.17,20.05-19.65,40.14-31.16,59.73-8.11,13.76-16.87,27.47-26.03,40.76l-4.25,6.15v-172.17h60.88s0-56.22,0-56.22h-117.1s0,299.73,0,299.73h57.55c15.82-19.15,30.89-39.28,44.81-59.85Z"/>
    </g>
  </g>
  <text class="cls-2" transform="translate(127.25 966.41)"><tspan x="0" y="0">THE GREAT BILLIONAIRE GROUP</tspan></text>
</svg>